<?xml version="1.0" standalone="no"?><!DOCTYPE svg PUBLIC "-//W3C//DTD SVG 1.1//EN" "http://www.w3.org/Graphics/SVG/1.1/DTD/svg11.dtd"><svg t="1725953826339" class="icon" viewBox="0 0 1024 1024" version="1.1" xmlns="http://www.w3.org/2000/svg" p-id="4307" xmlns:xlink="http://www.w3.org/1999/xlink" width="200" height="200"><path d="M768 996.693333H238.933333c-27.306667 0-51.2-13.653333-64.853333-34.133333C136.533333 911.36 116.053333 846.506667 116.053333 785.066667c0-187.733333 174.08-341.333333 389.12-341.333334s389.12 153.6 389.12 341.333334c0 64.853333-20.48 126.293333-58.026666 180.906666-17.066667 17.066667-40.96 30.72-68.266667 30.72zM505.173333 512c-177.493333 0-320.853333 122.88-320.853333 273.066667 0 47.786667 17.066667 98.986667 47.786667 139.946666 3.413333 3.413333 6.826667 3.413333 10.24 3.413334h529.066666c3.413333 0 6.826667 0 10.24-3.413334 30.72-40.96 47.786667-92.16 47.786667-139.946666-6.826667-150.186667-150.186667-273.066667-324.266667-273.066667zM505.173333 413.013333c-105.813333 0-194.56-85.333333-194.56-194.56S395.946667 23.893333 505.173333 23.893333s194.56 85.333333 194.56 194.56-88.746667 194.56-194.56 194.56z m0-317.44c-68.266667 0-126.293333 54.613333-126.293333 126.293334s54.613333 126.293333 126.293333 126.293333c68.266667 0 126.293333-54.613333 126.293334-126.293333s-58.026667-126.293333-126.293334-126.293334z" p-id="4308"></path><path d="M481.28 860.16v-51.2h-58.026667c-13.653333 0-20.48-6.826667-20.48-17.066667s6.826667-17.066667 20.48-17.066666h58.026667v-27.306667h-58.026667c-13.653333 0-20.48-6.826667-20.48-17.066667s6.826667-17.066667 20.48-17.066666h34.133334l-51.2-71.68c-6.826667-3.413333-6.826667-10.24-6.826667-17.066667 0-17.066667 10.24-27.306667 30.72-30.72 10.24 0 17.066667 6.826667 23.893333 13.653333l58.026667 85.333334 58.026667-85.333334c6.826667-6.826667 13.653333-10.24 23.893333-13.653333 17.066667 3.413333 27.306667 13.653333 30.72 30.72 0 6.826667-3.413333 13.653333-6.826667 17.066667l-51.2 71.68h34.133334c10.24 3.413333 17.066667 6.826667 20.48 17.066666 0 10.24-6.826667 17.066667-20.48 17.066667h-58.026667v27.306667h58.026667c10.24 3.413333 17.066667 6.826667 20.48 17.066666 0 10.24-6.826667 17.066667-20.48 17.066667h-58.026667v51.2c0 17.066667-10.24 27.306667-30.72 27.306667-20.48 0-30.72-10.24-30.72-27.306667z m0 0" p-id="4309"></path></svg>