<?xml version="1.0" standalone="no"?><!DOCTYPE svg PUBLIC "-//W3C//DTD SVG 1.1//EN" "http://www.w3.org/Graphics/SVG/1.1/DTD/svg11.dtd"><svg class="icon" width="200px" height="200.00px" viewBox="0 0 1024 1024" version="1.1" xmlns="http://www.w3.org/2000/svg"><path d="M925.54 381.98l-47.93-207.85c-9.19-39.88-44.2-67.73-85.12-67.73H230.43c-41.22 0-76.28 28.1-85.27 68.34L97.09 390.18l-0.39 2.13c-1.22 8.35-1.81 15.86-1.81 22.96 0 55.4 28.59 104.25 71.78 132.58v282.4c0 48.18 39.19 87.36 87.36 87.36h515.95c48.18 0 87.36-39.19 87.36-87.36V547.68c27.96-18.51 50.19-45.8 61.98-78.05 10.47-28.57 12.56-58.06 6.22-87.65zM799.1 830.24c0 16.06-13.06 29.12-29.12 29.12H254.02c-16.06 0-29.12-13.06-29.12-29.12V571.15a158.48 158.48 0 0 0 28.43 2.56c53.34 0 100.6-26.48 129.33-66.99 28.73 40.51 76 66.99 129.33 66.99 53.32 0 100.56-26.46 129.29-66.95 7.29 10.3 15.85 19.79 25.57 28.23 34.71 30.11 81.04 43.67 126.92 37.08 1.78-0.25 3.56-0.54 5.32-0.86v259.03z m65.53-380.62c-12.55 34.3-43.58 59.73-79.07 64.78-29.65 4.18-58.26-4.08-80.55-23.41-21.97-19.07-34.57-46.67-34.57-75.73l1.12-35.33h-61.12l1.75 35.33c0 55.25-44.95 100.2-100.2 100.2-55.26 0-100.21-44.95-100.21-100.2l1.12-35.33h-61.11l1.75 35.33c0 55.25-44.95 100.2-100.21 100.2-55.25 0-100.2-44.95-100.2-100.2 0-4.04 0.33-8.35 1.05-13.51l47.83-214.34c2.99-13.41 14.68-22.78 28.42-22.78h562.06c13.64 0 25.31 9.29 28.37 22.58l47.78 207.17c3.94 18.62 2.59 37.2-4.01 55.24z" /></svg>