<?xml version="1.0" standalone="no"?><!DOCTYPE svg PUBLIC "-//W3C//DTD SVG 1.1//EN" "http://www.w3.org/Graphics/SVG/1.1/DTD/svg11.dtd"><svg class="icon" width="200px" height="190.69px" viewBox="0 0 1074 1024" version="1.1" xmlns="http://www.w3.org/2000/svg"><path d="M790.510771 244.650447m-47.358546 6.386294a47.787201 47.787201 0 1 0 94.717091-12.772587 47.787201 47.787201 0 1 0-94.717091 12.772587ZM790.375663 305.415224a60.78117 60.78117 0 0 1-60.080896-52.650213 60.755234 60.755234 0 1 1 108.529467 28.711224 60.353225 60.353225 0 0 1-40.200902 23.342459 61.7019 61.7019 0 0 1-8.247669 0.59653z m0.155616-95.535498a35.013689 35.013689 0 0 0-4.681459 0.311233 34.819168 34.819168 0 0 0-16.456434 62.246558 34.819168 34.819168 0 1 0 21.137893-62.557791zM396.84774 1023.999857a22.629217 22.629217 0 0 1-16.858443-7.44365L5.887487 604.561805a22.694057 22.694057 0 0 1 1.569132-32.056978l102.188098-92.799242L631.348677 5.89257A22.681089 22.681089 0 0 1 647.078901 0.005083l405.601161 8.312509a22.694057 22.694057 0 0 1 16.339722 7.430683 22.694057 22.694057 0 0 1 5.835615 16.975155l-30.59159 402.903811a22.694057 22.694057 0 0 1-7.378811 15.081822L412.059242 1018.11237a22.616249 22.616249 0 0 1-15.211502 5.887487z m-342.109674-433.132295l343.65287 378.407197 601.301744-546.083861 28.075791-369.990944-372.597518-7.625203z" /></svg>