<?xml version="1.0" standalone="no"?><!DOCTYPE svg PUBLIC "-//W3C//DTD SVG 1.1//EN" "http://www.w3.org/Graphics/SVG/1.1/DTD/svg11.dtd"><svg t="1726197467850" class="icon" viewBox="0 0 1024 1024" version="1.1" xmlns="http://www.w3.org/2000/svg" p-id="4471" xmlns:xlink="http://www.w3.org/1999/xlink" width="200" height="200"><path d="M971.709 586.486c-17.556-1.88-33.23 8.026-39.877 23.199-0.125 0.25-0.25 0.502-0.25 0.627a27.459 27.459 0 0 0-1.505 4.138c-3.135 9.405-4.389 19.938-7.148 28.716C867.253 817.22 704.361 943.746 512 943.746c-178.567 0-331.928-109.222-397.512-264.214h173.05L0.627 488.3C0.251 496.2 0 504.1 0 512c0 282.27 229.604 512 512 512 142.201 0 271.11-58.31 363.905-152.233 34.108-34.485 65.082-72.731 88.28-115.617 18.057-33.356 36.366-77.496 41.883-126.652 2.383-21.318-13.041-40.629-34.359-43.012" p-id="4472"></path><path d="M597.521 301.582s-78.875 171.67-80.38 175.808h-1.88c-11.412-28.214-38.498-86.9-81.51-175.808h-94.926l109.097 191.984h-81.76v57.809h101.573v43.764H366.162v58.31h101.573v80.004h88.781v-80.004h98.187v-58.31h-98.187v-43.764h98.187v-57.809H575.2l112.105-191.984h-89.785z" p-id="4473"></path><path d="M512 0C349.86 0 205.277 75.74 111.479 193.614c-32.73 41.131-61.57 86.4-79.503 136.057-10.408 28.842-28.841 78.876 13.543 91.917 3.512 1.003 7.023 1.63 10.66 1.63 16.928 0.376 32.728-10.533 37.995-27.587 11.537-37.494 30.973-75.992 50.535-109.849 17.681-30.597 39.5-58.185 65.333-82.386 50.41-47.526 112.983-87.152 179.946-106.213 38.748-11.035 81.76-17.054 122.137-17.054 179.069 0 332.43 109.974 397.637 265.593L735.208 389.11 1024 516.765c0-1.63 0.125-3.26 0.125-4.89C1024 229.604 794.271 0 512 0" p-id="4474"></path></svg>