<?xml version="1.0" standalone="no"?><!DOCTYPE svg PUBLIC "-//W3C//DTD SVG 1.1//EN" "http://www.w3.org/Graphics/SVG/1.1/DTD/svg11.dtd"><svg class="icon" width="200px" height="200.00px" viewBox="0 0 1024 1024" version="1.1" xmlns="http://www.w3.org/2000/svg"><path d="M935.936 939.52c0-56.832-12.288-111.616-36.352-162.816-23.04-49.152-56.32-92.672-97.792-129.024-10.752-9.216-21.504-17.92-33.28-26.112-22.528-15.36-47.616-19.968-77.312-13.824-23.04 4.608-46.08 15.872-68.096 26.112-29.184 13.824-59.904 28.16-88.064 28.16-28.672 0-58.88-14.336-88.576-28.16-22.528-10.752-45.568-21.504-68.608-26.112-29.696-6.144-54.784-1.536-77.312 14.336-10.752 7.68-20.992 15.36-30.72 24.064-41.984 36.352-75.264 79.872-98.816 129.536-24.576 51.712-36.864 106.496-36.864 163.84h52.736c465.408-1.024 749.056 0 749.056 0zM535.04 594.944c-66.56 0-129.024-25.088-176.128-70.144-47.616-45.568-73.728-105.984-73.728-170.496 0-64.512 26.112-124.928 73.728-170.496 47.104-45.056 109.568-70.144 176.128-70.144s129.024 25.088 176.128 70.144c47.616 45.568 73.728 105.984 73.728 170.496s-26.112 124.928-73.728 170.496c-47.104 45.056-109.568 70.144-176.128 70.144z" /></svg>