<?xml version="1.0" standalone="no"?><!DOCTYPE svg PUBLIC "-//W3C//DTD SVG 1.1//EN" "http://www.w3.org/Graphics/SVG/1.1/DTD/svg11.dtd"><svg class="icon" width="200px" height="200.00px" viewBox="0 0 1024 1024" version="1.1" xmlns="http://www.w3.org/2000/svg"><path d="M466.4 747.2c60.8 0 119.2-19.2 168-56l32.8-24 24-32.8c36.8-48.8 56-107.2 56-168 0-154.4-125.6-280.8-280.8-280.8s-280 126.4-280 280.8c0 155.2 125.6 280.8 280 280.8m408 180.8c-13.6 0-26.4-4.8-36.8-15.2L688.8 763.2c-61.6 46.4-138.4 73.6-221.6 73.6-205.6 0.8-371.2-165.6-371.2-370.4C96 261.6 261.6 96 466.4 96c204.8 0 370.4 165.6 370.4 370.4 0 83.2-27.2 160-73.6 221.6l149.6 149.6c20 20 20 53.6 0 73.6l-1.6 1.6c-9.6 10.4-23.2 15.2-36.8 15.2z" fill="#333333" /></svg>