<?xml version="1.0" standalone="no"?><!DOCTYPE svg PUBLIC "-//W3C//DTD SVG 1.1//EN" "http://www.w3.org/Graphics/SVG/1.1/DTD/svg11.dtd"><svg t="1726197270528" class="icon" viewBox="0 0 1224 1024" version="1.1" xmlns="http://www.w3.org/2000/svg" p-id="4327" xmlns:xlink="http://www.w3.org/1999/xlink" width="239.0625" height="200"><path d="M586.229282 925.940354H42.968741c-23.64303 0-42.944689 18.688336-42.944689 41.537652v15.056497c0 22.789187 19.30166 41.465497 42.944689 41.465497h543.260541c23.618978 0 42.980767-18.67631 42.980767-41.501575v-15.020419c0-22.849317-19.361789-41.537652-42.980767-41.537652zM99.322371 889.393473h430.529229c23.655056 0 42.968741-18.688336 42.968741-41.5136v-9.692921c0-22.849317-19.325711-41.5136-42.968741-41.5136h-430.529229c-23.631004 0-42.980767 18.688336-42.980767 41.5136v9.692921c0 22.837291 19.349763 41.5136 42.980767 41.5136z m432.81416-377.097905c21.26189 20.516281 56.040955 20.516281 77.302846 0l118.720239-114.667491a51.62743 51.62743 0 0 0 0-74.633084L563.740744 164.144139c-21.273916-20.516281-56.040955-20.516281-77.302846 0l-118.74429 114.727621a51.62743 51.62743 0 0 0 0 74.633084z m-96.279804 156.09691a29.631956 29.631956 0 0 0 40.755965 0l55.114957-53.274985a27.250817 27.250817 0 0 0 0-39.360955l-229.695762-221.842812a29.631956 29.631956 0 0 0-40.743939 0l-55.199138 53.26296a27.214739 27.214739 0 0 0 0 39.360954z m358.012713-345.782316a29.631956 29.631956 0 0 0 40.743939 0l55.114957-53.287011a27.262842 27.262842 0 0 0 0-39.360954l-229.695761-221.842813a29.631956 29.631956 0 0 0-40.755966 0l-55.235216 53.274986a27.250817 27.250817 0 0 0 0 39.360954z m407.102666 535.575955a81.367619 81.367619 0 0 0-71.325946-21.117579c-16.619871-48.945641-65.144604-117.85437-133.656476-183.997128-72.372204-69.918909-148.063572-118.527823-199.077677-131.756375 10.173959-22.0075 9.897362-43.858662-3.355242-56.630227-19.939035-19.24153-61.332376-10.642971-92.395421 19.349763s-40.094538 69.954987-20.143476 89.30475c13.228552 12.747513 35.873427 13.012085 58.67464 3.198904 13.673512 49.24629 63.990112 122.328025 136.386368 192.270987 68.54795 66.142759 139.837818 113.043987 190.515196 129.12269a75.174252 75.174252 0 0 0 21.875215 68.896703c30.990889 30.06489 81.403697 29.968683 112.490793 0a75.005888 75.005888 0 0 0 0.012026-108.654514z" fill="" p-id="4328"></path></svg>