<?xml version="1.0" standalone="no"?><!DOCTYPE svg PUBLIC "-//W3C//DTD SVG 1.1//EN" "http://www.w3.org/Graphics/SVG/1.1/DTD/svg11.dtd"><svg t="1725863125682" class="icon" viewBox="0 0 1024 1024" version="1.1" xmlns="http://www.w3.org/2000/svg" p-id="6429" xmlns:xlink="http://www.w3.org/1999/xlink" width="200" height="200"><path d="M874.24 290.56l-330.24-159.573333a73.386667 73.386667 0 0 0-64 0L149.76 290.56a73.813333 73.813333 0 0 0 0 133.12l330.24 160a73.386667 73.386667 0 0 0 64 0l330.24-160a73.813333 73.813333 0 0 0 0-133.12zM891.306667 718.08h-111.786667v-111.786667a23.04 23.04 0 0 0-45.653333 0v111.786667h-111.786667a23.04 23.04 0 1 0 0 46.08h111.786667v111.786667a23.04 23.04 0 0 0 45.653333 0v-111.786667h111.786667a23.04 23.04 0 1 0 0-46.08z m0 0M512 834.986667l-34.56-16.64-361.386667-170.666667a69.973333 69.973333 0 0 0 34.56 85.333333l330.24 159.573334a68.693333 68.693333 0 0 0 30.293334 7.253333zM512 677.546667l-34.133333-16.64-361.813334-170.666667a69.12 69.12 0 0 0 34.56 85.333333l330.24 160a68.266667 68.266667 0 0 0 30.293334 6.826667z" p-id="6430"></path></svg>