<?xml version="1.0" standalone="no"?><!DOCTYPE svg PUBLIC "-//W3C//DTD SVG 1.1//EN" "http://www.w3.org/Graphics/SVG/1.1/DTD/svg11.dtd"><svg t="1726025743031" class="icon" viewBox="0 0 1024 1024" version="1.1" xmlns="http://www.w3.org/2000/svg" p-id="4292" xmlns:xlink="http://www.w3.org/1999/xlink" width="200" height="200"><path d="M819.2 1004.8H204.8c-64 0-108.8-57.6-108.8-121.6V576c0-70.4 44.8-128 108.8-128V358.4C204.8 172.8 339.2 19.2 512 19.2c172.8 0 307.2 153.6 307.2 339.2 0 19.2-12.8 32-25.6 32s-25.6-12.8-25.6-32c0-153.6-115.2-275.2-249.6-275.2-140.8 0-249.6 121.6-249.6 275.2V448h556.8c64 0 108.8 57.6 108.8 121.6v307.2c-6.4 76.8-51.2 128-115.2 128z m57.6-428.8c0-32-25.6-64-57.6-64H204.8c-32 0-57.6 25.6-57.6 64v307.2c0 32 25.6 64 57.6 64h614.4c32 0 57.6-25.6 57.6-64V576z m-339.2 179.2v96c0 19.2-12.8 32-25.6 32s-25.6-12.8-25.6-32v-96c-32-12.8-57.6-44.8-57.6-83.2C428.8 614.4 467.2 576 512 576c44.8 0 83.2 38.4 83.2 89.6 0 38.4-25.6 76.8-57.6 89.6zM512 633.6c-12.8 0-25.6 12.8-25.6 32s12.8 32 25.6 32 25.6-12.8 25.6-32-12.8-32-25.6-32z m0 0" fill="" p-id="4293"></path></svg>