<?xml version="1.0" standalone="no"?><!DOCTYPE svg PUBLIC "-//W3C//DTD SVG 1.1//EN" "http://www.w3.org/Graphics/SVG/1.1/DTD/svg11.dtd"><svg class="icon" width="200px" height="200.00px" viewBox="0 0 1024 1024" version="1.1" xmlns="http://www.w3.org/2000/svg"><path d="M707.088974 602.461908c-0.03284 0.278535 8.898531 0.453684 8.830417 0.735868 11.963634 14.629788 11.505085 37.18749 5.363931 53.535926-4.384801 11.613337-11.402915 19.929254-19.750457 23.789825-8.174826 34.591883-27.04589 56.340738-36.066051 66.198938-0.10217 8.701488 1.615261 20.599442 1.615261 28.07124 3.225657 11.491706 8.46674 14.843858 25.062086 22.661088 0.114333-0.048652-0.121631 0.049869 0 0 17.983157-7.221238 35.049215-10.862873 52.627341-22.384986v-50.116875c-5.345686-8.823119-10.573391-19.858708-13.576462-32.566725-6.248189-2.887522-11.233848-27.746485-9.711027-36.922334 1.867037-11.263039 2.95077-6.138721 3.92017-18.401568-0.027975-0.211638 3.993149-2.887522 3.970039-3.09916-1.652967-15.332815-15.084688-56.084096 9.464116-82.786987a88.238492 88.238492 0 0 1 5.934381-5.866267v-23.518588h-35.123411c11.826191 31.194726-0.883042 65.382793-2.560334 80.670605zM391.343173 647.503118c35.687779 0 64.615301 28.928739 64.615301 64.615301v96.83781c29.2316-7.524099 44.204388-16.415332 59.145551-35.15625 4.660903-5.846807 3.477433-19.255418 3.370398-27.989747-9.015297-9.8582-26.836684-30.659549-35.007861-65.285489-8.351191-3.860571-15.262269-12.177705-19.682343-23.789825-6.139938-16.347219-6.703089-39.645654 5.261761-54.27301-0.035273-0.282184 0.035273 0.279752 0 0-2.208821-20.49119-8.174826-74.939348 24.62908-110.621045 9.532229-10.364185 36.061186-27.53363 52.298937-34.29267V335.390438l-141.037333-105.927301v-54.485864h125.469769V105.685256H387.455843v123.755987l-142.848419 111.657342v180.693934H30.869971v306.79132h297.211655v-117.817957c0-34.939747 28.323016-63.262764 63.261547-63.262764z m1.666346-298.385395c34.947045 0 63.27371 28.326665 63.27371 63.271278s-28.327881 63.272494-63.27371 63.272494c-34.94218 0-63.270061-28.327881-63.270061-63.272494s28.327881-63.271278 63.270061-63.271278zM645.805148 762.651273c0-6.887969 0.094872-14.48383 0.192177-22.502969 8.309836-9.084626 27.384024-32.49253 34.91907-64.369606 7.69195-3.556493 14.159075-11.218036 18.202093-21.919139 5.655846-15.06766 6.079122-35.85563-4.947953-49.336004 0.064464-0.259074 0.097305-0.419627 0.130146-0.679917 2.068945-18.882011 7.56667-69.057269-22.663522-101.939019-17.427303-18.945259-43.518388-33.881557-77.49725-34.788925-33.981294 0.904935-60.07238 15.841233-77.49725 34.788925-30.228975 32.880533-24.73125 83.055791-22.696362 101.939019 0.031624 0.260291 0.065681 0.420844 0.097305 0.679917-11.025858 13.48159-10.603799 34.26956-4.946737 49.336004 4.072209 10.701103 10.443246 18.365079 18.137629 21.919139 7.531397 31.909917 26.479089 55.283764 34.786492 64.369606 0.094872 8.050762-0.130145 14.806153-0.130145 21.694122 0.002433 75.717787-173.807181 59.067707-173.807182 136.855656v21.04826h452.624567v-21.04826c0.003649-78.402186-174.90551-61.755754-174.903078-136.046809zM859.873437 752.911055c0-5.245949 0.074195-11.034373 0.149606-17.143903 6.328466-6.920809 20.862165-24.756792 26.601937-49.041656 5.860186-2.707508 10.787462-8.545801 13.863511-16.697516 4.314255-11.479542 4.632928-27.317127-3.768131-37.58644 0.049869-0.197042 0.075411-0.31989 0.097305-0.516932 1.577555-14.385309 5.762881-52.612745-17.265533-77.662669-13.27725-14.432745-33.15177-25.813767-59.038516-26.502198-25.886745 0.688432-45.766131 12.069453-59.040949 26.502198-23.029631 25.049923-18.843089 63.277359-17.289859 77.662669 0.024326 0.197042 0.047436 0.31989 0.075411 0.516932-8.399843 10.270529-8.079953 26.108114-3.770564 37.58644 3.105242 8.151716 7.95589 13.991225 13.816076 16.697516 5.739771 24.310406 20.173733 42.120847 26.502199 49.041656 0.074195 6.135072-0.097305 11.281284-0.097305 16.529666 0 21.630873-18.620504 33.36949-41.89583 42.714407-20.522814 8.236858 33.014327 13.918246 70.802675 32.092363 33.648025 16.184233 51.030325 45.491245 51.030325 45.491245h132.478152v-16.035843c0.004865-59.728164-133.25051-47.04569-133.25051-103.647935z" /></svg>