<?xml version="1.0" standalone="no"?><!DOCTYPE svg PUBLIC "-//W3C//DTD SVG 1.1//EN" "http://www.w3.org/Graphics/SVG/1.1/DTD/svg11.dtd"><svg class="icon" width="200px" height="200.00px" viewBox="0 0 1024 1024" version="1.1" xmlns="http://www.w3.org/2000/svg"><path d="M921.6 892.16a29.44 29.44 0 0 1-29.44 29.44H131.84a29.44 29.44 0 0 1-29.44-29.44V353.28a25.6 25.6 0 0 1 25.6-25.6h768a25.6 25.6 0 0 1 25.6 25.6v538.88zM229.184 115.072a29.472 29.472 0 0 1 24.224-12.672H460.8v122.88H152.896l76.288-110.208zM770.56 102.4c9.664 0 18.72 4.736 24.224 12.672l76.288 110.208H563.2V102.4h207.36z m229.952 129.984l-121.568-175.584A131.84 131.84 0 0 0 770.592 0H253.408A131.84 131.84 0 0 0 144.96 56.8L23.424 232.384A131.84 131.84 0 0 0 0 307.424V892.16A131.84 131.84 0 0 0 131.84 1024h760.32A131.84 131.84 0 0 0 1024 892.16V307.424c0-26.816-8.192-52.992-23.456-75.04z" fill="#263238" /><path d="M684 544h-312C343.264 544 320 522.528 320 496s23.264-48 52-48h312c28.704 0 52 21.472 52 48s-23.296 48-52 48" fill="#08AAA4" /></svg>