<?xml version="1.0" standalone="no"?><!DOCTYPE svg PUBLIC "-//W3C//DTD SVG 1.1//EN" "http://www.w3.org/Graphics/SVG/1.1/DTD/svg11.dtd"><svg t="1725849208071" class="icon" viewBox="0 0 1024 1024" version="1.1" xmlns="http://www.w3.org/2000/svg" p-id="4297" xmlns:xlink="http://www.w3.org/1999/xlink" width="200" height="200"><path d="M896 512a384 384 0 1 0-384 384 384 384 0 0 0 384-384z m64 0A448 448 0 1 1 512 64a448 448 0 0 1 448 448z" p-id="4298"></path><path d="M608 672a32 32 0 0 1 0 64H416a32 32 0 0 1 0-64z" p-id="4299"></path><path d="M480 448h-32a32 32 0 0 1 0-64h64a32 32 0 0 1 32 32v256a32 32 0 0 1-64 0z m64-128a32 32 0 1 1-32-32 32 32 0 0 1 32 32" p-id="4300"></path></svg>